<svg width="28" height="28" viewBox="0 0 28 28" fill="none" xmlns="http://www.w3.org/2000/svg">
<path d="M4.66536 18.0833C4.04653 18.0833 3.45303 17.8375 3.01545 17.3999C2.57786 16.9623 2.33203 16.3689 2.33203 15.75C2.33203 15.1312 2.57786 14.5377 3.01545 14.1001C3.45303 13.6625 4.04653 13.4167 4.66536 13.4167M23.332 18.0833C23.9509 18.0833 24.5444 17.8375 24.9819 17.3999C25.4195 16.9623 25.6654 16.3689 25.6654 15.75C25.6654 15.1312 25.4195 14.5377 24.9819 14.1001C24.5444 13.6625 23.9509 13.4167 23.332 13.4167M8.16536 8.16668V4.66668M19.832 8.16668V4.66668" stroke="white" stroke-width="1.75" stroke-linecap="round" stroke-linejoin="round"/>
<path d="M8.16471 4.66668C8.80905 4.66668 9.33138 4.14434 9.33138 3.50001C9.33138 2.85568 8.80905 2.33334 8.16471 2.33334C7.52038 2.33334 6.99805 2.85568 6.99805 3.50001C6.99805 4.14434 7.52038 4.66668 8.16471 4.66668Z" stroke="white" stroke-width="1.75" stroke-linecap="round" stroke-linejoin="round"/>
<path d="M19.8327 4.66668C20.477 4.66668 20.9993 4.14434 20.9993 3.50001C20.9993 2.85568 20.477 2.33334 19.8327 2.33334C19.1884 2.33334 18.666 2.85568 18.666 3.50001C18.666 4.14434 19.1884 4.66668 19.8327 4.66668Z" stroke="white" stroke-width="1.75" stroke-linecap="round" stroke-linejoin="round"/>
<path d="M15.748 8.16667H12.248C8.94871 8.16667 7.29788 8.16667 6.27355 9.22717C5.24921 10.2877 5.24805 11.9945 5.24805 15.4082C5.24805 18.8218 5.24805 20.5287 6.27355 21.5892C7.29788 22.6497 8.94871 22.6497 12.248 22.6497H13.4439C14.3679 22.6497 14.6934 22.8398 15.3304 23.5328C16.0339 24.2993 17.1235 25.3225 18.1094 25.5605C19.5105 25.8988 19.668 25.431 19.3554 24.0952C19.2667 23.7148 19.0439 23.107 19.2784 22.7523C19.4102 22.554 19.6284 22.505 20.0659 22.407C20.7554 22.253 21.3247 22.001 21.7225 21.5892C22.748 20.5275 22.748 18.8218 22.748 15.4082C22.748 11.9945 22.748 10.2877 21.7225 9.22717C20.6982 8.16667 19.0474 8.16667 15.748 8.16667Z" stroke="white" stroke-width="1.75" stroke-linecap="round" stroke-linejoin="round"/>
<path d="M11.0814 17.5C11.7464 18.2082 12.8057 18.6667 13.998 18.6667C15.1904 18.6667 16.2497 18.2082 16.9147 17.5M10.5085 12.8333H10.498M17.5085 12.8333H17.498" stroke="white" stroke-width="1.75" stroke-linecap="round" stroke-linejoin="round"/>
</svg>
